<?xml version="1.0" encoding="utf-8" standalone="no"?>
<!DOCTYPE svg PUBLIC "-//W3C//DTD SVG 1.1//EN"
  "http://www.w3.org/Graphics/SVG/1.1/DTD/svg11.dtd">
<svg xmlns:xlink="http://www.w3.org/1999/xlink" width="712.830625pt" height="308.966562pt" viewBox="0 0 712.830625 308.966562" xmlns="http://www.w3.org/2000/svg" version="1.1">
 <metadata>
  <rdf:RDF xmlns:dc="http://purl.org/dc/elements/1.1/" xmlns:cc="http://creativecommons.org/ns#" xmlns:rdf="http://www.w3.org/1999/02/22-rdf-syntax-ns#">
   <cc:Work>
    <dc:type rdf:resource="http://purl.org/dc/dcmitype/StillImage"/>
    <dc:date>2026-04-22T00:36:08.778243</dc:date>
    <dc:format>image/svg+xml</dc:format>
    <dc:creator>
     <cc:Agent>
      <dc:title>Matplotlib v3.9.2, https://matplotlib.org/</dc:title>
     </cc:Agent>
    </dc:creator>
   </cc:Work>
  </rdf:RDF>
 </metadata>
 <defs>
  <style type="text/css">*{stroke-linejoin: round; stroke-linecap: butt}</style>
 </defs>
 <g id="figure_1">
  <g id="patch_1">
   <path d="M 0 308.966562 
L 712.830625 308.966562 
L 712.830625 0 
L 0 0 
z
" style="fill: #ffffff"/>
  </g>
  <g id="axes_1">
   <g id="patch_2">
    <path d="M 43.588125 270.198437 
L 350.414875 270.198437 
L 350.414875 17.798437 
L 43.588125 17.798437 
z
" style="fill: #ffffff"/>
   </g>
   <g id="matplotlib.axis_1">
    <g id="xtick_1">
     <g id="line2d_1">
      <defs>
       <path id="m97be77630f" d="M 0 0 
L 0 3.5 
" style="stroke: #000000; stroke-width: 0.8"/>
      </defs>
      <g>
       <use xlink:href="#m97be77630f" x="57.534795" y="270.198437" style="stroke: #000000; stroke-width: 0.8"/>
      </g>
     </g>
     <g id="text_1">
      <!-- −4 -->
      <g transform="translate(50.163702 284.796875) scale(0.1 -0.1)">
       <defs>
        <path id="DejaVuSerif-2212" d="M 678 2259 
L 4684 2259 
L 4684 1753 
L 678 1753 
L 678 2259 
z
" transform="scale(0.015625)"/>
        <path id="DejaVuSerif-34" d="M 2234 1581 
L 2234 4063 
L 641 1581 
L 2234 1581 
z
M 3609 0 
L 1484 0 
L 1484 331 
L 2234 331 
L 2234 1247 
L 197 1247 
L 197 1588 
L 2241 4750 
L 2859 4750 
L 2859 1581 
L 3750 1581 
L 3750 1247 
L 2859 1247 
L 2859 331 
L 3609 331 
L 3609 0 
z
" transform="scale(0.015625)"/>
       </defs>
       <use xlink:href="#DejaVuSerif-2212"/>
       <use xlink:href="#DejaVuSerif-34" x="83.789062"/>
      </g>
     </g>
    </g>
    <g id="xtick_2">
     <g id="line2d_2">
      <g>
       <use xlink:href="#m97be77630f" x="92.401472" y="270.198437" style="stroke: #000000; stroke-width: 0.8"/>
      </g>
     </g>
     <g id="text_2">
      <!-- −3 -->
      <g transform="translate(85.030378 284.796875) scale(0.1 -0.1)">
       <defs>
        <path id="DejaVuSerif-33" d="M 622 4469 
Q 988 4606 1323 4678 
Q 1659 4750 1953 4750 
Q 2638 4750 3022 4454 
Q 3406 4159 3406 3634 
Q 3406 3213 3140 2930 
Q 2875 2647 2388 2547 
Q 2963 2466 3280 2130 
Q 3597 1794 3597 1259 
Q 3597 606 3158 257 
Q 2719 -91 1894 -91 
Q 1528 -91 1179 -12 
Q 831 66 488 225 
L 488 1131 
L 838 1131 
Q 869 681 1141 450 
Q 1413 219 1906 219 
Q 2384 219 2661 495 
Q 2938 772 2938 1253 
Q 2938 1803 2653 2086 
Q 2369 2369 1819 2369 
L 1522 2369 
L 1522 2688 
L 1678 2688 
Q 2225 2688 2498 2914 
Q 2772 3141 2772 3597 
Q 2772 4006 2547 4223 
Q 2322 4441 1900 4441 
Q 1478 4441 1245 4241 
Q 1013 4041 972 3647 
L 622 3647 
L 622 4469 
z
" transform="scale(0.015625)"/>
       </defs>
       <use xlink:href="#DejaVuSerif-2212"/>
       <use xlink:href="#DejaVuSerif-33" x="83.789062"/>
      </g>
     </g>
    </g>
    <g id="xtick_3">
     <g id="line2d_3">
      <g>
       <use xlink:href="#m97be77630f" x="127.268148" y="270.198437" style="stroke: #000000; stroke-width: 0.8"/>
      </g>
     </g>
     <g id="text_3">
      <!-- −2 -->
      <g transform="translate(119.897054 284.796875) scale(0.1 -0.1)">
       <defs>
        <path id="DejaVuSerif-32" d="M 819 3553 
L 469 3553 
L 469 4384 
Q 803 4563 1142 4656 
Q 1481 4750 1806 4750 
Q 2534 4750 2956 4397 
Q 3378 4044 3378 3438 
Q 3378 2753 2422 1800 
Q 2347 1728 2309 1691 
L 1131 513 
L 3078 513 
L 3078 1088 
L 3444 1088 
L 3444 0 
L 434 0 
L 434 341 
L 1850 1753 
Q 2319 2222 2519 2614 
Q 2719 3006 2719 3438 
Q 2719 3909 2473 4175 
Q 2228 4441 1797 4441 
Q 1350 4441 1106 4219 
Q 863 3997 819 3553 
z
" transform="scale(0.015625)"/>
       </defs>
       <use xlink:href="#DejaVuSerif-2212"/>
       <use xlink:href="#DejaVuSerif-32" x="83.789062"/>
      </g>
     </g>
    </g>
    <g id="xtick_4">
     <g id="line2d_4">
      <g>
       <use xlink:href="#m97be77630f" x="162.134824" y="270.198437" style="stroke: #000000; stroke-width: 0.8"/>
      </g>
     </g>
     <g id="text_4">
      <!-- −1 -->
      <g transform="translate(154.76373 284.796875) scale(0.1 -0.1)">
       <defs>
        <path id="DejaVuSerif-31" d="M 909 0 
L 909 331 
L 1722 331 
L 1722 4213 
L 781 3603 
L 781 4013 
L 1919 4750 
L 2350 4750 
L 2350 331 
L 3163 331 
L 3163 0 
L 909 0 
z
" transform="scale(0.015625)"/>
       </defs>
       <use xlink:href="#DejaVuSerif-2212"/>
       <use xlink:href="#DejaVuSerif-31" x="83.789062"/>
      </g>
     </g>
    </g>
    <g id="xtick_5">
     <g id="line2d_5">
      <g>
       <use xlink:href="#m97be77630f" x="197.0015" y="270.198437" style="stroke: #000000; stroke-width: 0.8"/>
      </g>
     </g>
     <g id="text_5">
      <!-- 0 -->
      <g transform="translate(193.82025 284.796875) scale(0.1 -0.1)">
       <defs>
        <path id="DejaVuSerif-30" d="M 2034 219 
Q 2513 219 2750 744 
Q 2988 1269 2988 2328 
Q 2988 3391 2750 3916 
Q 2513 4441 2034 4441 
Q 1556 4441 1318 3916 
Q 1081 3391 1081 2328 
Q 1081 1269 1318 744 
Q 1556 219 2034 219 
z
M 2034 -91 
Q 1275 -91 848 546 
Q 422 1184 422 2328 
Q 422 3475 848 4112 
Q 1275 4750 2034 4750 
Q 2797 4750 3222 4112 
Q 3647 3475 3647 2328 
Q 3647 1184 3222 546 
Q 2797 -91 2034 -91 
z
" transform="scale(0.015625)"/>
       </defs>
       <use xlink:href="#DejaVuSerif-30"/>
      </g>
     </g>
    </g>
    <g id="xtick_6">
     <g id="line2d_6">
      <g>
       <use xlink:href="#m97be77630f" x="231.868176" y="270.198437" style="stroke: #000000; stroke-width: 0.8"/>
      </g>
     </g>
     <g id="text_6">
      <!-- 1 -->
      <g transform="translate(228.686926 284.796875) scale(0.1 -0.1)">
       <use xlink:href="#DejaVuSerif-31"/>
      </g>
     </g>
    </g>
    <g id="xtick_7">
     <g id="line2d_7">
      <g>
       <use xlink:href="#m97be77630f" x="266.734852" y="270.198437" style="stroke: #000000; stroke-width: 0.8"/>
      </g>
     </g>
     <g id="text_7">
      <!-- 2 -->
      <g transform="translate(263.553602 284.796875) scale(0.1 -0.1)">
       <use xlink:href="#DejaVuSerif-32"/>
      </g>
     </g>
    </g>
    <g id="xtick_8">
     <g id="line2d_8">
      <g>
       <use xlink:href="#m97be77630f" x="301.601528" y="270.198437" style="stroke: #000000; stroke-width: 0.8"/>
      </g>
     </g>
     <g id="text_8">
      <!-- 3 -->
      <g transform="translate(298.420278 284.796875) scale(0.1 -0.1)">
       <use xlink:href="#DejaVuSerif-33"/>
      </g>
     </g>
    </g>
    <g id="xtick_9">
     <g id="line2d_9">
      <g>
       <use xlink:href="#m97be77630f" x="336.468205" y="270.198437" style="stroke: #000000; stroke-width: 0.8"/>
      </g>
     </g>
     <g id="text_9">
      <!-- 4 -->
      <g transform="translate(333.286955 284.796875) scale(0.1 -0.1)">
       <use xlink:href="#DejaVuSerif-34"/>
      </g>
     </g>
    </g>
    <g id="text_10">
     <!-- Energy (meV) -->
     <g transform="translate(158.449078 299.234844) scale(0.11 -0.11)">
      <defs>
       <path id="DejaVuSerif-45" d="M 353 0 
L 353 331 
L 947 331 
L 947 4331 
L 353 4331 
L 353 4666 
L 4109 4666 
L 4109 3628 
L 3725 3628 
L 3725 4281 
L 1581 4281 
L 1581 2719 
L 3109 2719 
L 3109 3303 
L 3494 3303 
L 3494 1753 
L 3109 1753 
L 3109 2338 
L 1581 2338 
L 1581 384 
L 3775 384 
L 3775 1038 
L 4159 1038 
L 4159 0 
L 353 0 
z
" transform="scale(0.015625)"/>
       <path id="DejaVuSerif-6e" d="M 263 0 
L 263 331 
L 781 331 
L 781 2988 
L 231 2988 
L 231 3322 
L 1356 3322 
L 1356 2731 
Q 1516 3069 1770 3241 
Q 2025 3413 2363 3413 
Q 2913 3413 3172 3097 
Q 3431 2781 3431 2113 
L 3431 331 
L 3944 331 
L 3944 0 
L 2356 0 
L 2356 331 
L 2853 331 
L 2853 1931 
Q 2853 2541 2703 2767 
Q 2553 2994 2175 2994 
Q 1775 2994 1565 2701 
Q 1356 2409 1356 1850 
L 1356 331 
L 1856 331 
L 1856 0 
L 263 0 
z
" transform="scale(0.015625)"/>
       <path id="DejaVuSerif-65" d="M 3469 1600 
L 991 1600 
L 991 1575 
Q 991 903 1244 561 
Q 1497 219 1991 219 
Q 2369 219 2611 417 
Q 2853 616 2950 1006 
L 3413 1006 
Q 3275 459 2904 184 
Q 2534 -91 1931 -91 
Q 1203 -91 761 389 
Q 319 869 319 1663 
Q 319 2450 753 2931 
Q 1188 3413 1894 3413 
Q 2647 3413 3050 2948 
Q 3453 2484 3469 1600 
z
M 2791 1931 
Q 2772 2513 2545 2808 
Q 2319 3103 1894 3103 
Q 1497 3103 1269 2806 
Q 1041 2509 991 1931 
L 2791 1931 
z
" transform="scale(0.015625)"/>
       <path id="DejaVuSerif-72" d="M 3059 3328 
L 3059 2497 
L 2728 2497 
Q 2713 2744 2591 2866 
Q 2469 2988 2234 2988 
Q 1809 2988 1582 2694 
Q 1356 2400 1356 1850 
L 1356 331 
L 2022 331 
L 2022 0 
L 263 0 
L 263 331 
L 781 331 
L 781 2994 
L 231 2994 
L 231 3322 
L 1356 3322 
L 1356 2731 
Q 1525 3078 1790 3245 
Q 2056 3413 2438 3413 
Q 2578 3413 2733 3391 
Q 2888 3369 3059 3328 
z
" transform="scale(0.015625)"/>
       <path id="DejaVuSerif-67" d="M 3359 2988 
L 3359 72 
Q 3359 -644 2965 -1033 
Q 2572 -1422 1844 -1422 
Q 1516 -1422 1216 -1362 
Q 916 -1303 641 -1184 
L 641 -488 
L 941 -488 
Q 997 -813 1206 -963 
Q 1416 -1113 1806 -1113 
Q 2313 -1113 2548 -827 
Q 2784 -541 2784 72 
L 2784 519 
Q 2616 206 2355 57 
Q 2094 -91 1709 -91 
Q 1097 -91 708 395 
Q 319 881 319 1663 
Q 319 2444 706 2928 
Q 1094 3413 1709 3413 
Q 2094 3413 2355 3264 
Q 2616 3116 2784 2803 
L 2784 3322 
L 3909 3322 
L 3909 2988 
L 3359 2988 
z
M 2784 1825 
Q 2784 2422 2554 2737 
Q 2325 3053 1888 3053 
Q 1444 3053 1217 2703 
Q 991 2353 991 1663 
Q 991 975 1217 622 
Q 1444 269 1888 269 
Q 2325 269 2554 583 
Q 2784 897 2784 1497 
L 2784 1825 
z
" transform="scale(0.015625)"/>
       <path id="DejaVuSerif-79" d="M 1381 -609 
L 1600 -56 
L 359 2988 
L -19 2988 
L -19 3322 
L 1509 3322 
L 1509 2988 
L 978 2988 
L 1913 703 
L 2847 2988 
L 2350 2988 
L 2350 3322 
L 3597 3322 
L 3597 2988 
L 3225 2988 
L 1703 -750 
Q 1547 -1138 1356 -1280 
Q 1166 -1422 819 -1422 
Q 672 -1422 517 -1397 
Q 363 -1372 206 -1325 
L 206 -691 
L 500 -691 
Q 519 -903 608 -995 
Q 697 -1088 884 -1088 
Q 1056 -1088 1161 -992 
Q 1266 -897 1381 -609 
z
" transform="scale(0.015625)"/>
       <path id="DejaVuSerif-20" transform="scale(0.015625)"/>
       <path id="DejaVuSerif-28" d="M 2041 -997 
Q 1281 -656 893 83 
Q 506 822 506 1931 
Q 506 3044 893 3783 
Q 1281 4522 2041 4863 
L 2041 4556 
Q 1559 4225 1350 3623 
Q 1141 3022 1141 1931 
Q 1141 844 1350 242 
Q 1559 -359 2041 -691 
L 2041 -997 
z
" transform="scale(0.015625)"/>
       <path id="DejaVuSerif-6d" d="M 3316 2675 
Q 3481 3041 3739 3227 
Q 3997 3413 4341 3413 
Q 4863 3413 5119 3089 
Q 5375 2766 5375 2113 
L 5375 331 
L 5894 331 
L 5894 0 
L 4300 0 
L 4300 331 
L 4800 331 
L 4800 2047 
Q 4800 2556 4650 2772 
Q 4500 2988 4153 2988 
Q 3769 2988 3567 2697 
Q 3366 2406 3366 1850 
L 3366 331 
L 3866 331 
L 3866 0 
L 2291 0 
L 2291 331 
L 2791 331 
L 2791 2069 
Q 2791 2566 2641 2777 
Q 2491 2988 2144 2988 
Q 1759 2988 1557 2697 
Q 1356 2406 1356 1850 
L 1356 331 
L 1856 331 
L 1856 0 
L 263 0 
L 263 331 
L 781 331 
L 781 2994 
L 231 2994 
L 231 3322 
L 1356 3322 
L 1356 2731 
Q 1516 3063 1762 3238 
Q 2009 3413 2322 3413 
Q 2709 3413 2968 3220 
Q 3228 3028 3316 2675 
z
" transform="scale(0.015625)"/>
       <path id="DejaVuSerif-56" d="M 1119 4331 
L 2497 750 
L 3872 4331 
L 3347 4331 
L 3347 4666 
L 4716 4666 
L 4716 4331 
L 4263 4331 
L 2597 0 
L 2059 0 
L 403 4331 
L -63 4331 
L -63 4666 
L 1638 4666 
L 1638 4331 
L 1119 4331 
z
" transform="scale(0.015625)"/>
       <path id="DejaVuSerif-29" d="M 453 -997 
L 453 -691 
Q 934 -359 1145 242 
Q 1356 844 1356 1931 
Q 1356 3022 1145 3623 
Q 934 4225 453 4556 
L 453 4863 
Q 1216 4522 1603 3783 
Q 1991 3044 1991 1931 
Q 1991 822 1603 83 
Q 1216 -656 453 -997 
z
" transform="scale(0.015625)"/>
      </defs>
      <use xlink:href="#DejaVuSerif-45"/>
      <use xlink:href="#DejaVuSerif-6e" x="72.998047"/>
      <use xlink:href="#DejaVuSerif-65" x="137.402344"/>
      <use xlink:href="#DejaVuSerif-72" x="196.582031"/>
      <use xlink:href="#DejaVuSerif-67" x="244.384766"/>
      <use xlink:href="#DejaVuSerif-79" x="308.398438"/>
      <use xlink:href="#DejaVuSerif-20" x="364.892578"/>
      <use xlink:href="#DejaVuSerif-28" x="396.679688"/>
      <use xlink:href="#DejaVuSerif-6d" x="435.693359"/>
      <use xlink:href="#DejaVuSerif-65" x="530.517578"/>
      <use xlink:href="#DejaVuSerif-56" x="589.697266"/>
      <use xlink:href="#DejaVuSerif-29" x="661.914062"/>
     </g>
    </g>
   </g>
   <g id="matplotlib.axis_2">
    <g id="ytick_1">
     <g id="line2d_10">
      <defs>
       <path id="mf6cb3f60e6" d="M 0 0 
L -3.5 0 
" style="stroke: #000000; stroke-width: 0.8"/>
      </defs>
      <g>
       <use xlink:href="#mf6cb3f60e6" x="43.588125" y="235.124595" style="stroke: #000000; stroke-width: 0.8"/>
      </g>
     </g>
     <g id="text_11">
      <!-- −2 -->
      <g transform="translate(21.845938 238.923814) scale(0.1 -0.1)">
       <use xlink:href="#DejaVuSerif-2212"/>
       <use xlink:href="#DejaVuSerif-32" x="83.789062"/>
      </g>
     </g>
    </g>
    <g id="ytick_2">
     <g id="line2d_11">
      <g>
       <use xlink:href="#mf6cb3f60e6" x="43.588125" y="189.561516" style="stroke: #000000; stroke-width: 0.8"/>
      </g>
     </g>
     <g id="text_12">
      <!-- −1 -->
      <g transform="translate(21.845938 193.360735) scale(0.1 -0.1)">
       <use xlink:href="#DejaVuSerif-2212"/>
       <use xlink:href="#DejaVuSerif-31" x="83.789062"/>
      </g>
     </g>
    </g>
    <g id="ytick_3">
     <g id="line2d_12">
      <g>
       <use xlink:href="#mf6cb3f60e6" x="43.588125" y="143.998437" style="stroke: #000000; stroke-width: 0.8"/>
      </g>
     </g>
     <g id="text_13">
      <!-- 0 -->
      <g transform="translate(30.225625 147.797656) scale(0.1 -0.1)">
       <use xlink:href="#DejaVuSerif-30"/>
      </g>
     </g>
    </g>
    <g id="ytick_4">
     <g id="line2d_13">
      <g>
       <use xlink:href="#mf6cb3f60e6" x="43.588125" y="98.435359" style="stroke: #000000; stroke-width: 0.8"/>
      </g>
     </g>
     <g id="text_14">
      <!-- 1 -->
      <g transform="translate(30.225625 102.234577) scale(0.1 -0.1)">
       <use xlink:href="#DejaVuSerif-31"/>
      </g>
     </g>
    </g>
    <g id="ytick_5">
     <g id="line2d_14">
      <g>
       <use xlink:href="#mf6cb3f60e6" x="43.588125" y="52.87228" style="stroke: #000000; stroke-width: 0.8"/>
      </g>
     </g>
     <g id="text_15">
      <!-- 2 -->
      <g transform="translate(30.225625 56.671498) scale(0.1 -0.1)">
       <use xlink:href="#DejaVuSerif-32"/>
      </g>
     </g>
    </g>
    <g id="text_16">
     <!-- $T^z(E)$ -->
     <g transform="translate(15.558281 157.693437) rotate(-90) scale(0.11 -0.11)">
      <defs>
       <path id="DejaVuSans-Oblique-54" d="M 378 4666 
L 4325 4666 
L 4225 4134 
L 2559 4134 
L 1759 0 
L 1125 0 
L 1925 4134 
L 275 4134 
L 378 4666 
z
" transform="scale(0.015625)"/>
       <path id="DejaVuSans-Oblique-7a" d="M 744 3500 
L 3475 3500 
L 3372 2975 
L 738 459 
L 2913 459 
L 2822 0 
L -19 0 
L 84 525 
L 2719 3041 
L 653 3041 
L 744 3500 
z
" transform="scale(0.015625)"/>
       <path id="DejaVuSans-28" d="M 1984 4856 
Q 1566 4138 1362 3434 
Q 1159 2731 1159 2009 
Q 1159 1288 1364 580 
Q 1569 -128 1984 -844 
L 1484 -844 
Q 1016 -109 783 600 
Q 550 1309 550 2009 
Q 550 2706 781 3412 
Q 1013 4119 1484 4856 
L 1984 4856 
z
" transform="scale(0.015625)"/>
       <path id="DejaVuSans-Oblique-45" d="M 1081 4666 
L 4031 4666 
L 3928 4134 
L 1606 4134 
L 1338 2753 
L 3566 2753 
L 3463 2222 
L 1234 2222 
L 909 531 
L 3284 531 
L 3181 0 
L 172 0 
L 1081 4666 
z
" transform="scale(0.015625)"/>
       <path id="DejaVuSans-29" d="M 513 4856 
L 1013 4856 
Q 1481 4119 1714 3412 
Q 1947 2706 1947 2009 
Q 1947 1309 1714 600 
Q 1481 -109 1013 -844 
L 513 -844 
Q 928 -128 1133 580 
Q 1338 1288 1338 2009 
Q 1338 2731 1133 3434 
Q 928 4138 513 4856 
z
" transform="scale(0.015625)"/>
      </defs>
      <use xlink:href="#DejaVuSans-Oblique-54" transform="translate(0 0.4375)"/>
      <use xlink:href="#DejaVuSans-Oblique-7a" transform="translate(68.100755 38.71875) scale(0.7)"/>
      <use xlink:href="#DejaVuSans-28" transform="translate(107.578294 0.4375)"/>
      <use xlink:href="#DejaVuSans-Oblique-45" transform="translate(146.591966 0.4375)"/>
      <use xlink:href="#DejaVuSans-29" transform="translate(209.77556 0.4375)"/>
     </g>
    </g>
    <g id="text_17">
     <!-- 1e−10 -->
     <g transform="translate(43.588125 14.798437) scale(0.1 -0.1)">
      <use xlink:href="#DejaVuSerif-31"/>
      <use xlink:href="#DejaVuSerif-65" x="63.623047"/>
      <use xlink:href="#DejaVuSerif-2212" x="122.802734"/>
      <use xlink:href="#DejaVuSerif-31" x="206.591797"/>
      <use xlink:href="#DejaVuSerif-30" x="270.214844"/>
     </g>
    </g>
   </g>
   <g id="line2d_15">
    <path d="M 57.534795 143.998437 
L 117.505478 144.068169 
L 121.68948 144.295979 
L 124.478814 144.663993 
L 127.268148 145.342082 
L 128.662815 145.845199 
L 130.057482 146.486749 
L 131.452149 147.289954 
L 132.846816 148.278439 
L 134.241483 149.475524 
L 135.63615 150.903456 
L 137.030817 152.582647 
L 138.425484 154.530953 
L 139.820151 156.763071 
L 141.214818 159.290101 
L 142.609485 162.119335 
L 144.004152 165.254334 
L 145.398819 168.69531 
L 148.188153 176.483782 
L 150.977488 185.451522 
L 153.766822 195.56699 
L 156.556156 206.788195 
L 160.740157 225.226356 
L 163.529491 237.581392 
L 164.924158 243.290407 
L 166.318825 248.398361 
L 167.713492 252.681121 
L 169.108159 255.933429 
L 170.502826 257.987348 
L 171.897493 258.72571 
L 173.29216 258.089981 
L 174.686827 256.082895 
L 176.081494 252.766306 
L 177.476161 248.254455 
L 178.870828 242.702989 
L 180.265495 236.294698 
L 183.05483 221.679732 
L 195.606833 151.437426 
L 202.580168 113.865711 
L 208.158836 82.158657 
L 212.342838 58.773237 
L 213.737505 51.702177 
L 215.132172 45.293886 
L 216.526839 39.74242 
L 217.921506 35.230569 
L 219.316173 31.91398 
L 220.71084 29.906894 
L 222.105507 29.271165 
L 223.500174 30.009527 
L 224.894841 32.063446 
L 226.289508 35.315754 
L 227.684175 39.598514 
L 229.078842 44.706468 
L 231.868176 56.503572 
L 237.446844 81.20868 
L 240.236178 92.429885 
L 243.025513 102.545353 
L 245.814847 111.513093 
L 248.604181 119.301565 
L 249.998848 122.742541 
L 251.393515 125.87754 
L 252.788182 128.706774 
L 254.182849 131.233804 
L 255.577516 133.465922 
L 256.972183 135.414228 
L 258.36685 137.093419 
L 259.761517 138.521351 
L 261.156184 139.718436 
L 262.550851 140.706921 
L 263.945518 141.510126 
L 265.340185 142.151676 
L 268.129519 143.041655 
L 270.918853 143.547144 
L 273.708188 143.808259 
L 277.892189 143.958831 
L 289.049525 143.998486 
L 336.468205 143.998437 
L 336.468205 143.998437 
" clip-path="url(#pf31a8dbb2d)" style="fill: none; stroke: #1f77b4; stroke-width: 1.8; stroke-linecap: square"/>
   </g>
   <g id="line2d_16">
    <path d="M 57.534795 143.998437 
L 117.505478 144.068992 
L 121.68948 144.298253 
L 124.478814 144.667652 
L 127.268148 145.347012 
L 128.662815 145.850448 
L 130.057482 146.491883 
L 131.452149 147.294309 
L 132.846816 148.281078 
L 134.241483 149.475185 
L 135.63615 150.898504 
L 137.030817 152.57103 
L 138.425484 154.51016 
L 139.820151 156.7301 
L 141.214818 159.241435 
L 142.609485 162.050925 
L 144.004152 165.1616 
L 145.398819 168.573153 
L 148.188153 176.285611 
L 150.977488 185.152166 
L 153.766822 195.140851 
L 156.556156 206.21413 
L 159.34549 218.213991 
L 163.529491 236.644177 
L 164.924158 242.30337 
L 166.318825 247.374217 
L 167.713492 251.633265 
L 169.108159 254.875123 
L 170.502826 256.931057 
L 171.897493 257.682591 
L 173.29216 257.069476 
L 174.686827 255.092425 
L 176.081494 251.811127 
L 177.476161 247.337772 
L 178.870828 241.826381 
L 180.265495 235.458816 
L 183.05483 220.927782 
L 195.606833 151.335358 
L 202.580168 114.250597 
L 206.764169 90.795741 
L 210.94817 67.069093 
L 213.737505 52.538059 
L 215.132172 46.170494 
L 216.526839 40.659103 
L 217.921506 36.185748 
L 219.316173 32.90445 
L 220.71084 30.927399 
L 222.105507 30.314284 
L 223.500174 31.065818 
L 224.894841 33.121752 
L 226.289508 36.36361 
L 227.684175 40.622658 
L 229.078842 45.693505 
L 231.868176 57.379827 
L 237.446844 81.782745 
L 240.236178 92.856024 
L 243.025513 102.844709 
L 245.814847 111.711264 
L 248.604181 119.423722 
L 249.998848 122.835275 
L 251.393515 125.94595 
L 252.788182 128.75544 
L 254.182849 131.266775 
L 255.577516 133.486715 
L 256.972183 135.425845 
L 258.36685 137.098371 
L 259.761517 138.52169 
L 261.156184 139.715797 
L 262.550851 140.702566 
L 263.945518 141.504992 
L 265.340185 142.146427 
L 268.129519 143.037301 
L 270.918853 143.5442 
L 273.708188 143.80657 
L 277.892189 143.958292 
L 289.049525 143.998485 
L 336.468205 143.998437 
L 336.468205 143.998437 
" clip-path="url(#pf31a8dbb2d)" style="fill: none; stroke: #ff7f0e; stroke-width: 1.8; stroke-linecap: square"/>
   </g>
   <g id="line2d_17">
    <path d="M 57.534795 143.998437 
L 117.505478 144.073388 
L 121.68948 144.310222 
L 124.478814 144.686733 
L 127.268148 145.372424 
L 128.662815 145.877288 
L 130.057482 146.517807 
L 131.452149 147.315792 
L 132.846816 148.293165 
L 134.241483 149.471241 
L 135.63615 150.869973 
L 137.030817 152.507206 
L 138.425484 154.397993 
L 139.820151 156.554029 
L 141.214818 158.983266 
L 142.609485 161.689769 
L 144.004152 164.673866 
L 146.793486 171.460689 
L 149.58282 179.297952 
L 152.372155 188.139122 
L 155.161489 197.963345 
L 157.950823 208.735933 
L 164.924158 237.178305 
L 166.318825 242.05601 
L 167.713492 246.19289 
L 169.108159 249.383248 
L 170.502826 251.454564 
L 171.897493 252.281958 
L 173.29216 251.796713 
L 174.686827 249.989414 
L 176.081494 246.908592 
L 177.476161 242.655352 
L 178.870828 237.374205 
L 180.265495 231.240567 
L 183.05483 217.183244 
L 192.817499 164.733849 
L 205.369502 101.349928 
L 212.342838 63.550823 
L 213.737505 56.756308 
L 215.132172 50.62267 
L 216.526839 45.341523 
L 217.921506 41.088283 
L 219.316173 38.007461 
L 220.71084 36.200162 
L 222.105507 35.714917 
L 223.500174 36.542311 
L 224.894841 38.613627 
L 226.289508 41.803985 
L 227.684175 45.940865 
L 229.078842 50.81857 
L 231.868176 61.926653 
L 236.052177 79.260942 
L 238.841511 90.03353 
L 241.630845 99.857753 
L 244.42018 108.698923 
L 247.209514 116.536186 
L 249.998848 123.323009 
L 251.393515 126.307106 
L 252.788182 129.013609 
L 254.182849 131.442846 
L 255.577516 133.598882 
L 256.972183 135.489669 
L 258.36685 137.126902 
L 259.761517 138.525634 
L 261.156184 139.70371 
L 262.550851 140.681083 
L 263.945518 141.479068 
L 265.340185 142.119587 
L 268.129519 143.014716 
L 270.918853 143.528775 
L 273.708188 143.797645 
L 277.892189 143.955401 
L 287.654858 143.998414 
L 336.468205 143.998437 
L 336.468205 143.998437 
" clip-path="url(#pf31a8dbb2d)" style="fill: none; stroke: #2ca02c; stroke-width: 1.8; stroke-linecap: square"/>
   </g>
   <g id="line2d_18">
    <path d="M 57.534795 143.998437 
L 117.505478 144.090019 
L 121.68948 144.353208 
L 124.478814 144.752845 
L 127.268148 145.4565 
L 128.662815 145.963111 
L 130.057482 146.596353 
L 131.452149 147.373937 
L 132.846816 148.312899 
L 134.241483 149.428897 
L 135.63615 150.735499 
L 137.030817 152.243505 
L 138.425484 153.960365 
L 139.820151 155.889733 
L 141.214818 158.031234 
L 144.004152 162.929418 
L 146.793486 168.580326 
L 149.58282 174.881956 
L 152.372155 181.754409 
L 155.161489 189.192801 
L 157.950823 197.274289 
L 160.740157 206.039188 
L 164.924158 219.69112 
L 166.318825 223.888874 
L 167.713492 227.602315 
L 169.108159 230.629255 
L 170.502826 232.786919 
L 171.897493 233.931001 
L 173.29216 233.967624 
L 174.686827 232.857901 
L 176.081494 230.61682 
L 177.476161 227.308588 
L 178.870828 223.039812 
L 180.265495 217.950941 
L 181.660163 212.205974 
L 184.449497 199.449943 
L 190.028165 173.124895 
L 192.817499 160.97359 
L 197.0015 143.998437 
L 201.185501 127.023285 
L 203.974835 114.87198 
L 208.158836 95.22094 
L 210.94817 82.01622 
L 213.737505 70.045934 
L 215.132172 64.957063 
L 216.526839 60.688287 
L 217.921506 57.380055 
L 219.316173 55.138974 
L 220.71084 54.029251 
L 222.105507 54.065874 
L 223.500174 55.209956 
L 224.894841 57.36762 
L 226.289508 60.39456 
L 227.684175 64.108001 
L 230.473509 72.789145 
L 234.65751 86.419721 
L 237.446844 94.849704 
L 240.236178 102.59748 
L 243.025513 109.7475 
L 245.814847 116.340881 
L 248.604181 122.329866 
L 251.393515 127.616393 
L 254.182849 132.107142 
L 255.577516 134.03651 
L 256.972183 135.75337 
L 258.36685 137.261376 
L 259.761517 138.567978 
L 261.156184 139.683976 
L 262.550851 140.622938 
L 263.945518 141.400522 
L 265.340185 142.033764 
L 268.129519 142.938078 
L 270.918853 143.474332 
L 273.708188 143.76504 
L 277.892189 143.944249 
L 287.654858 143.998291 
L 336.468205 143.998437 
L 336.468205 143.998437 
" clip-path="url(#pf31a8dbb2d)" style="fill: none; stroke: #d62728; stroke-width: 1.8; stroke-linecap: square"/>
   </g>
   <g id="patch_3">
    <path d="M 43.588125 270.198437 
L 43.588125 17.798437 
" style="fill: none; stroke: #000000; stroke-width: 0.8; stroke-linejoin: miter; stroke-linecap: square"/>
   </g>
   <g id="patch_4">
    <path d="M 350.414875 270.198437 
L 350.414875 17.798437 
" style="fill: none; stroke: #000000; stroke-width: 0.8; stroke-linejoin: miter; stroke-linecap: square"/>
   </g>
   <g id="patch_5">
    <path d="M 43.588125 270.198437 
L 350.414875 270.198437 
" style="fill: none; stroke: #000000; stroke-width: 0.8; stroke-linejoin: miter; stroke-linecap: square"/>
   </g>
   <g id="patch_6">
    <path d="M 43.588125 17.798437 
L 350.414875 17.798437 
" style="fill: none; stroke: #000000; stroke-width: 0.8; stroke-linejoin: miter; stroke-linecap: square"/>
   </g>
   <g id="legend_1">
    <g id="line2d_19">
     <path d="M 280.304875 29.587031 
L 289.304875 29.587031 
L 298.304875 29.587031 
" style="fill: none; stroke: #1f77b4; stroke-width: 1.8; stroke-linecap: square"/>
    </g>
    <g id="text_18">
     <!-- $\Delta=0.0$ -->
     <g transform="translate(305.504875 32.737031) scale(0.09 -0.09)">
      <defs>
       <path id="DejaVuSans-394" d="M 2188 4044 
L 906 525 
L 3472 525 
L 2188 4044 
z
M 50 0 
L 1831 4666 
L 2547 4666 
L 4325 0 
L 50 0 
z
" transform="scale(0.015625)"/>
       <path id="DejaVuSans-3d" d="M 678 2906 
L 4684 2906 
L 4684 2381 
L 678 2381 
L 678 2906 
z
M 678 1631 
L 4684 1631 
L 4684 1100 
L 678 1100 
L 678 1631 
z
" transform="scale(0.015625)"/>
       <path id="DejaVuSans-30" d="M 2034 4250 
Q 1547 4250 1301 3770 
Q 1056 3291 1056 2328 
Q 1056 1369 1301 889 
Q 1547 409 2034 409 
Q 2525 409 2770 889 
Q 3016 1369 3016 2328 
Q 3016 3291 2770 3770 
Q 2525 4250 2034 4250 
z
M 2034 4750 
Q 2819 4750 3233 4129 
Q 3647 3509 3647 2328 
Q 3647 1150 3233 529 
Q 2819 -91 2034 -91 
Q 1250 -91 836 529 
Q 422 1150 422 2328 
Q 422 3509 836 4129 
Q 1250 4750 2034 4750 
z
" transform="scale(0.015625)"/>
       <path id="DejaVuSans-2e" d="M 684 794 
L 1344 794 
L 1344 0 
L 684 0 
L 684 794 
z
" transform="scale(0.015625)"/>
      </defs>
      <use xlink:href="#DejaVuSans-394" transform="translate(0 0.78125)"/>
      <use xlink:href="#DejaVuSans-3d" transform="translate(87.890625 0.78125)"/>
      <use xlink:href="#DejaVuSans-30" transform="translate(191.162109 0.78125)"/>
      <use xlink:href="#DejaVuSans-2e" transform="translate(254.785156 0.78125)"/>
      <use xlink:href="#DejaVuSans-30" transform="translate(286.572266 0.78125)"/>
     </g>
    </g>
    <g id="line2d_20">
     <path d="M 280.304875 42.797344 
L 289.304875 42.797344 
L 298.304875 42.797344 
" style="fill: none; stroke: #ff7f0e; stroke-width: 1.8; stroke-linecap: square"/>
    </g>
    <g id="text_19">
     <!-- $\Delta=0.1$ -->
     <g transform="translate(305.504875 45.947344) scale(0.09 -0.09)">
      <defs>
       <path id="DejaVuSans-31" d="M 794 531 
L 1825 531 
L 1825 4091 
L 703 3866 
L 703 4441 
L 1819 4666 
L 2450 4666 
L 2450 531 
L 3481 531 
L 3481 0 
L 794 0 
L 794 531 
z
" transform="scale(0.015625)"/>
      </defs>
      <use xlink:href="#DejaVuSans-394" transform="translate(0 0.78125)"/>
      <use xlink:href="#DejaVuSans-3d" transform="translate(87.890625 0.78125)"/>
      <use xlink:href="#DejaVuSans-30" transform="translate(191.162109 0.78125)"/>
      <use xlink:href="#DejaVuSans-2e" transform="translate(254.785156 0.78125)"/>
      <use xlink:href="#DejaVuSans-31" transform="translate(286.572266 0.78125)"/>
     </g>
    </g>
    <g id="line2d_21">
     <path d="M 280.304875 56.007656 
L 289.304875 56.007656 
L 298.304875 56.007656 
" style="fill: none; stroke: #2ca02c; stroke-width: 1.8; stroke-linecap: square"/>
    </g>
    <g id="text_20">
     <!-- $\Delta=0.25$ -->
     <g transform="translate(305.504875 59.157656) scale(0.09 -0.09)">
      <defs>
       <path id="DejaVuSans-32" d="M 1228 531 
L 3431 531 
L 3431 0 
L 469 0 
L 469 531 
Q 828 903 1448 1529 
Q 2069 2156 2228 2338 
Q 2531 2678 2651 2914 
Q 2772 3150 2772 3378 
Q 2772 3750 2511 3984 
Q 2250 4219 1831 4219 
Q 1534 4219 1204 4116 
Q 875 4013 500 3803 
L 500 4441 
Q 881 4594 1212 4672 
Q 1544 4750 1819 4750 
Q 2544 4750 2975 4387 
Q 3406 4025 3406 3419 
Q 3406 3131 3298 2873 
Q 3191 2616 2906 2266 
Q 2828 2175 2409 1742 
Q 1991 1309 1228 531 
z
" transform="scale(0.015625)"/>
       <path id="DejaVuSans-35" d="M 691 4666 
L 3169 4666 
L 3169 4134 
L 1269 4134 
L 1269 2991 
Q 1406 3038 1543 3061 
Q 1681 3084 1819 3084 
Q 2600 3084 3056 2656 
Q 3513 2228 3513 1497 
Q 3513 744 3044 326 
Q 2575 -91 1722 -91 
Q 1428 -91 1123 -41 
Q 819 9 494 109 
L 494 744 
Q 775 591 1075 516 
Q 1375 441 1709 441 
Q 2250 441 2565 725 
Q 2881 1009 2881 1497 
Q 2881 1984 2565 2268 
Q 2250 2553 1709 2553 
Q 1456 2553 1204 2497 
Q 953 2441 691 2322 
L 691 4666 
z
" transform="scale(0.015625)"/>
      </defs>
      <use xlink:href="#DejaVuSans-394" transform="translate(0 0.78125)"/>
      <use xlink:href="#DejaVuSans-3d" transform="translate(87.890625 0.78125)"/>
      <use xlink:href="#DejaVuSans-30" transform="translate(191.162109 0.78125)"/>
      <use xlink:href="#DejaVuSans-2e" transform="translate(254.785156 0.78125)"/>
      <use xlink:href="#DejaVuSans-32" transform="translate(281.072266 0.78125)"/>
      <use xlink:href="#DejaVuSans-35" transform="translate(344.695312 0.78125)"/>
     </g>
    </g>
    <g id="line2d_22">
     <path d="M 280.304875 69.217969 
L 289.304875 69.217969 
L 298.304875 69.217969 
" style="fill: none; stroke: #d62728; stroke-width: 1.8; stroke-linecap: square"/>
    </g>
    <g id="text_21">
     <!-- $\Delta=0.5$ -->
     <g transform="translate(305.504875 72.367969) scale(0.09 -0.09)">
      <use xlink:href="#DejaVuSans-394" transform="translate(0 0.78125)"/>
      <use xlink:href="#DejaVuSans-3d" transform="translate(87.890625 0.78125)"/>
      <use xlink:href="#DejaVuSans-30" transform="translate(191.162109 0.78125)"/>
      <use xlink:href="#DejaVuSans-2e" transform="translate(254.785156 0.78125)"/>
      <use xlink:href="#DejaVuSans-35" transform="translate(286.572266 0.78125)"/>
     </g>
    </g>
   </g>
  </g>
  <g id="axes_2">
   <g id="patch_7">
    <path d="M 398.803875 270.198437 
L 705.630625 270.198437 
L 705.630625 17.798437 
L 398.803875 17.798437 
z
" style="fill: #ffffff"/>
   </g>
   <g id="matplotlib.axis_3">
    <g id="xtick_10">
     <g id="line2d_23">
      <g>
       <use xlink:href="#m97be77630f" x="412.750545" y="270.198437" style="stroke: #000000; stroke-width: 0.8"/>
      </g>
     </g>
     <g id="text_22">
      <!-- 0.0 -->
      <g transform="translate(404.798983 284.796875) scale(0.1 -0.1)">
       <defs>
        <path id="DejaVuSerif-2e" d="M 603 325 
Q 603 500 722 622 
Q 841 744 1019 744 
Q 1191 744 1312 622 
Q 1434 500 1434 325 
Q 1434 153 1312 31 
Q 1191 -91 1019 -91 
Q 841 -91 722 29 
Q 603 150 603 325 
z
" transform="scale(0.015625)"/>
       </defs>
       <use xlink:href="#DejaVuSerif-30"/>
       <use xlink:href="#DejaVuSerif-2e" x="63.623047"/>
       <use xlink:href="#DejaVuSerif-30" x="95.410156"/>
      </g>
     </g>
    </g>
    <g id="xtick_11">
     <g id="line2d_24">
      <g>
       <use xlink:href="#m97be77630f" x="468.537227" y="270.198437" style="stroke: #000000; stroke-width: 0.8"/>
      </g>
     </g>
     <g id="text_23">
      <!-- 0.2 -->
      <g transform="translate(460.585665 284.796875) scale(0.1 -0.1)">
       <use xlink:href="#DejaVuSerif-30"/>
       <use xlink:href="#DejaVuSerif-2e" x="63.623047"/>
       <use xlink:href="#DejaVuSerif-32" x="95.410156"/>
      </g>
     </g>
    </g>
    <g id="xtick_12">
     <g id="line2d_25">
      <g>
       <use xlink:href="#m97be77630f" x="524.323909" y="270.198437" style="stroke: #000000; stroke-width: 0.8"/>
      </g>
     </g>
     <g id="text_24">
      <!-- 0.4 -->
      <g transform="translate(516.372347 284.796875) scale(0.1 -0.1)">
       <use xlink:href="#DejaVuSerif-30"/>
       <use xlink:href="#DejaVuSerif-2e" x="63.623047"/>
       <use xlink:href="#DejaVuSerif-34" x="95.410156"/>
      </g>
     </g>
    </g>
    <g id="xtick_13">
     <g id="line2d_26">
      <g>
       <use xlink:href="#m97be77630f" x="580.110591" y="270.198437" style="stroke: #000000; stroke-width: 0.8"/>
      </g>
     </g>
     <g id="text_25">
      <!-- 0.6 -->
      <g transform="translate(572.159028 284.796875) scale(0.1 -0.1)">
       <defs>
        <path id="DejaVuSerif-36" d="M 2094 219 
Q 2534 219 2771 542 
Q 3009 866 3009 1472 
Q 3009 2078 2771 2401 
Q 2534 2725 2094 2725 
Q 1647 2725 1412 2412 
Q 1178 2100 1178 1509 
Q 1178 888 1415 553 
Q 1653 219 2094 219 
z
M 1075 2569 
Q 1288 2803 1556 2918 
Q 1825 3034 2163 3034 
Q 2859 3034 3264 2615 
Q 3669 2197 3669 1472 
Q 3669 763 3233 336 
Q 2797 -91 2069 -91 
Q 1278 -91 853 498 
Q 428 1088 428 2181 
Q 428 3406 931 4078 
Q 1434 4750 2350 4750 
Q 2597 4750 2869 4703 
Q 3141 4656 3425 4563 
L 3425 3794 
L 3072 3794 
Q 3034 4109 2831 4275 
Q 2628 4441 2284 4441 
Q 1678 4441 1381 3981 
Q 1084 3522 1075 2569 
z
" transform="scale(0.015625)"/>
       </defs>
       <use xlink:href="#DejaVuSerif-30"/>
       <use xlink:href="#DejaVuSerif-2e" x="63.623047"/>
       <use xlink:href="#DejaVuSerif-36" x="95.410156"/>
      </g>
     </g>
    </g>
    <g id="xtick_14">
     <g id="line2d_27">
      <g>
       <use xlink:href="#m97be77630f" x="635.897273" y="270.198437" style="stroke: #000000; stroke-width: 0.8"/>
      </g>
     </g>
     <g id="text_26">
      <!-- 0.8 -->
      <g transform="translate(627.94571 284.796875) scale(0.1 -0.1)">
       <defs>
        <path id="DejaVuSerif-38" d="M 2981 1275 
Q 2981 1775 2732 2051 
Q 2484 2328 2034 2328 
Q 1584 2328 1336 2051 
Q 1088 1775 1088 1275 
Q 1088 772 1336 495 
Q 1584 219 2034 219 
Q 2484 219 2732 495 
Q 2981 772 2981 1275 
z
M 2853 3541 
Q 2853 3966 2637 4203 
Q 2422 4441 2034 4441 
Q 1650 4441 1433 4203 
Q 1216 3966 1216 3541 
Q 1216 3113 1433 2875 
Q 1650 2638 2034 2638 
Q 2422 2638 2637 2875 
Q 2853 3113 2853 3541 
z
M 2516 2484 
Q 3047 2413 3344 2092 
Q 3641 1772 3641 1275 
Q 3641 619 3225 264 
Q 2809 -91 2034 -91 
Q 1263 -91 845 264 
Q 428 619 428 1275 
Q 428 1772 725 2092 
Q 1022 2413 1556 2484 
Q 1084 2569 832 2842 
Q 581 3116 581 3541 
Q 581 4103 968 4426 
Q 1356 4750 2034 4750 
Q 2713 4750 3100 4426 
Q 3488 4103 3488 3541 
Q 3488 3116 3236 2842 
Q 2984 2569 2516 2484 
z
" transform="scale(0.015625)"/>
       </defs>
       <use xlink:href="#DejaVuSerif-30"/>
       <use xlink:href="#DejaVuSerif-2e" x="63.623047"/>
       <use xlink:href="#DejaVuSerif-38" x="95.410156"/>
      </g>
     </g>
    </g>
    <g id="xtick_15">
     <g id="line2d_28">
      <g>
       <use xlink:href="#m97be77630f" x="691.683955" y="270.198437" style="stroke: #000000; stroke-width: 0.8"/>
      </g>
     </g>
     <g id="text_27">
      <!-- 1.0 -->
      <g transform="translate(683.732392 284.796875) scale(0.1 -0.1)">
       <use xlink:href="#DejaVuSerif-31"/>
       <use xlink:href="#DejaVuSerif-2e" x="63.623047"/>
       <use xlink:href="#DejaVuSerif-30" x="95.410156"/>
      </g>
     </g>
    </g>
    <g id="text_28">
     <!-- Detuning $\Delta$ (meV) -->
     <g transform="translate(502.44225 299.236562) scale(0.11 -0.11)">
      <defs>
       <path id="DejaVuSerif-44" d="M 1581 331 
L 2163 331 
Q 3072 331 3558 850 
Q 4044 1369 4044 2338 
Q 4044 3306 3559 3818 
Q 3075 4331 2163 4331 
L 1581 4331 
L 1581 331 
z
M 353 0 
L 353 331 
L 947 331 
L 947 4331 
L 353 4331 
L 353 4666 
L 2209 4666 
Q 3416 4666 4089 4050 
Q 4763 3434 4763 2338 
Q 4763 1238 4088 619 
Q 3413 0 2209 0 
L 353 0 
z
" transform="scale(0.015625)"/>
       <path id="DejaVuSerif-74" d="M 691 2988 
L 184 2988 
L 184 3322 
L 691 3322 
L 691 4353 
L 1269 4353 
L 1269 3322 
L 2350 3322 
L 2350 2988 
L 1269 2988 
L 1269 878 
Q 1269 456 1350 337 
Q 1431 219 1650 219 
Q 1875 219 1978 351 
Q 2081 484 2088 781 
L 2522 781 
Q 2497 328 2275 118 
Q 2053 -91 1600 -91 
Q 1103 -91 897 129 
Q 691 350 691 878 
L 691 2988 
z
" transform="scale(0.015625)"/>
       <path id="DejaVuSerif-75" d="M 2266 3322 
L 3341 3322 
L 3341 331 
L 3884 331 
L 3884 0 
L 2766 0 
L 2766 588 
Q 2606 256 2353 82 
Q 2100 -91 1766 -91 
Q 1213 -91 952 223 
Q 691 538 691 1209 
L 691 2988 
L 172 2988 
L 172 3322 
L 1269 3322 
L 1269 1388 
Q 1269 781 1417 556 
Q 1566 331 1947 331 
Q 2347 331 2556 625 
Q 2766 919 2766 1478 
L 2766 2988 
L 2266 2988 
L 2266 3322 
z
" transform="scale(0.015625)"/>
       <path id="DejaVuSerif-69" d="M 622 4353 
Q 622 4497 726 4603 
Q 831 4709 978 4709 
Q 1122 4709 1226 4603 
Q 1331 4497 1331 4353 
Q 1331 4206 1228 4103 
Q 1125 4000 978 4000 
Q 831 4000 726 4103 
Q 622 4206 622 4353 
z
M 1356 331 
L 1900 331 
L 1900 0 
L 231 0 
L 231 331 
L 781 331 
L 781 2988 
L 231 2988 
L 231 3322 
L 1356 3322 
L 1356 331 
z
" transform="scale(0.015625)"/>
      </defs>
      <use xlink:href="#DejaVuSerif-44" transform="translate(0 0.015625)"/>
      <use xlink:href="#DejaVuSerif-65" transform="translate(80.175781 0.015625)"/>
      <use xlink:href="#DejaVuSerif-74" transform="translate(139.355469 0.015625)"/>
      <use xlink:href="#DejaVuSerif-75" transform="translate(179.541016 0.015625)"/>
      <use xlink:href="#DejaVuSerif-6e" transform="translate(243.945312 0.015625)"/>
      <use xlink:href="#DejaVuSerif-69" transform="translate(308.349609 0.015625)"/>
      <use xlink:href="#DejaVuSerif-6e" transform="translate(340.332031 0.015625)"/>
      <use xlink:href="#DejaVuSerif-67" transform="translate(404.736328 0.015625)"/>
      <use xlink:href="#DejaVuSerif-20" transform="translate(468.75 0.015625)"/>
      <use xlink:href="#DejaVuSans-394" transform="translate(500.537109 0.015625)"/>
      <use xlink:href="#DejaVuSerif-20" transform="translate(568.945312 0.015625)"/>
      <use xlink:href="#DejaVuSerif-28" transform="translate(600.732422 0.015625)"/>
      <use xlink:href="#DejaVuSerif-6d" transform="translate(639.746094 0.015625)"/>
      <use xlink:href="#DejaVuSerif-65" transform="translate(734.570312 0.015625)"/>
      <use xlink:href="#DejaVuSerif-56" transform="translate(793.75 0.015625)"/>
      <use xlink:href="#DejaVuSerif-29" transform="translate(865.966797 0.015625)"/>
     </g>
    </g>
   </g>
   <g id="matplotlib.axis_4">
    <g id="ytick_6">
     <g id="line2d_29">
      <g>
       <use xlink:href="#mf6cb3f60e6" x="398.803875" y="253.733241" style="stroke: #000000; stroke-width: 0.8"/>
      </g>
     </g>
     <g id="text_29">
      <!-- −3 -->
      <g transform="translate(377.061688 257.532459) scale(0.1 -0.1)">
       <use xlink:href="#DejaVuSerif-2212"/>
       <use xlink:href="#DejaVuSerif-33" x="83.789062"/>
      </g>
     </g>
    </g>
    <g id="ytick_7">
     <g id="line2d_30">
      <g>
       <use xlink:href="#mf6cb3f60e6" x="398.803875" y="210.184815" style="stroke: #000000; stroke-width: 0.8"/>
      </g>
     </g>
     <g id="text_30">
      <!-- −2 -->
      <g transform="translate(377.061688 213.984033) scale(0.1 -0.1)">
       <use xlink:href="#DejaVuSerif-2212"/>
       <use xlink:href="#DejaVuSerif-32" x="83.789062"/>
      </g>
     </g>
    </g>
    <g id="ytick_8">
     <g id="line2d_31">
      <g>
       <use xlink:href="#mf6cb3f60e6" x="398.803875" y="166.636388" style="stroke: #000000; stroke-width: 0.8"/>
      </g>
     </g>
     <g id="text_31">
      <!-- −1 -->
      <g transform="translate(377.061688 170.435607) scale(0.1 -0.1)">
       <use xlink:href="#DejaVuSerif-2212"/>
       <use xlink:href="#DejaVuSerif-31" x="83.789062"/>
      </g>
     </g>
    </g>
    <g id="ytick_9">
     <g id="line2d_32">
      <g>
       <use xlink:href="#mf6cb3f60e6" x="398.803875" y="123.087962" style="stroke: #000000; stroke-width: 0.8"/>
      </g>
     </g>
     <g id="text_32">
      <!-- 0 -->
      <g transform="translate(385.441375 126.887181) scale(0.1 -0.1)">
       <use xlink:href="#DejaVuSerif-30"/>
      </g>
     </g>
    </g>
    <g id="ytick_10">
     <g id="line2d_33">
      <g>
       <use xlink:href="#mf6cb3f60e6" x="398.803875" y="79.539536" style="stroke: #000000; stroke-width: 0.8"/>
      </g>
     </g>
     <g id="text_33">
      <!-- 1 -->
      <g transform="translate(385.441375 83.338755) scale(0.1 -0.1)">
       <use xlink:href="#DejaVuSerif-31"/>
      </g>
     </g>
    </g>
    <g id="ytick_11">
     <g id="line2d_34">
      <g>
       <use xlink:href="#mf6cb3f60e6" x="398.803875" y="35.99111" style="stroke: #000000; stroke-width: 0.8"/>
      </g>
     </g>
     <g id="text_34">
      <!-- 2 -->
      <g transform="translate(385.441375 39.790329) scale(0.1 -0.1)">
       <use xlink:href="#DejaVuSerif-32"/>
      </g>
     </g>
    </g>
    <g id="text_35">
     <!-- $I_{\mathrm{spin}}$ -->
     <g transform="translate(369.651688 153.733437) rotate(-90) scale(0.11 -0.11)">
      <defs>
       <path id="DejaVuSans-Oblique-49" d="M 1081 4666 
L 1716 4666 
L 806 0 
L 172 0 
L 1081 4666 
z
" transform="scale(0.015625)"/>
       <path id="DejaVuSans-73" d="M 2834 3397 
L 2834 2853 
Q 2591 2978 2328 3040 
Q 2066 3103 1784 3103 
Q 1356 3103 1142 2972 
Q 928 2841 928 2578 
Q 928 2378 1081 2264 
Q 1234 2150 1697 2047 
L 1894 2003 
Q 2506 1872 2764 1633 
Q 3022 1394 3022 966 
Q 3022 478 2636 193 
Q 2250 -91 1575 -91 
Q 1294 -91 989 -36 
Q 684 19 347 128 
L 347 722 
Q 666 556 975 473 
Q 1284 391 1588 391 
Q 1994 391 2212 530 
Q 2431 669 2431 922 
Q 2431 1156 2273 1281 
Q 2116 1406 1581 1522 
L 1381 1569 
Q 847 1681 609 1914 
Q 372 2147 372 2553 
Q 372 3047 722 3315 
Q 1072 3584 1716 3584 
Q 2034 3584 2315 3537 
Q 2597 3491 2834 3397 
z
" transform="scale(0.015625)"/>
       <path id="DejaVuSans-70" d="M 1159 525 
L 1159 -1331 
L 581 -1331 
L 581 3500 
L 1159 3500 
L 1159 2969 
Q 1341 3281 1617 3432 
Q 1894 3584 2278 3584 
Q 2916 3584 3314 3078 
Q 3713 2572 3713 1747 
Q 3713 922 3314 415 
Q 2916 -91 2278 -91 
Q 1894 -91 1617 61 
Q 1341 213 1159 525 
z
M 3116 1747 
Q 3116 2381 2855 2742 
Q 2594 3103 2138 3103 
Q 1681 3103 1420 2742 
Q 1159 2381 1159 1747 
Q 1159 1113 1420 752 
Q 1681 391 2138 391 
Q 2594 391 2855 752 
Q 3116 1113 3116 1747 
z
" transform="scale(0.015625)"/>
       <path id="DejaVuSans-69" d="M 603 3500 
L 1178 3500 
L 1178 0 
L 603 0 
L 603 3500 
z
M 603 4863 
L 1178 4863 
L 1178 4134 
L 603 4134 
L 603 4863 
z
" transform="scale(0.015625)"/>
       <path id="DejaVuSans-6e" d="M 3513 2113 
L 3513 0 
L 2938 0 
L 2938 2094 
Q 2938 2591 2744 2837 
Q 2550 3084 2163 3084 
Q 1697 3084 1428 2787 
Q 1159 2491 1159 1978 
L 1159 0 
L 581 0 
L 581 3500 
L 1159 3500 
L 1159 2956 
Q 1366 3272 1645 3428 
Q 1925 3584 2291 3584 
Q 2894 3584 3203 3211 
Q 3513 2838 3513 2113 
z
" transform="scale(0.015625)"/>
      </defs>
      <use xlink:href="#DejaVuSans-Oblique-49" transform="translate(0 0.09375)"/>
      <use xlink:href="#DejaVuSans-73" transform="translate(29.492188 -16.3125) scale(0.7)"/>
      <use xlink:href="#DejaVuSans-70" transform="translate(65.961914 -16.3125) scale(0.7)"/>
      <use xlink:href="#DejaVuSans-69" transform="translate(110.395508 -16.3125) scale(0.7)"/>
      <use xlink:href="#DejaVuSans-6e" transform="translate(129.84375 -16.3125) scale(0.7)"/>
     </g>
    </g>
    <g id="text_36">
     <!-- 1e−16 -->
     <g transform="translate(398.803875 14.798437) scale(0.1 -0.1)">
      <use xlink:href="#DejaVuSerif-31"/>
      <use xlink:href="#DejaVuSerif-65" x="63.623047"/>
      <use xlink:href="#DejaVuSerif-2212" x="122.802734"/>
      <use xlink:href="#DejaVuSerif-31" x="206.591797"/>
      <use xlink:href="#DejaVuSerif-36" x="270.214844"/>
     </g>
    </g>
   </g>
   <g id="line2d_35">
    <path d="M 412.750545 170.492122 
L 418.329214 222.334519 
L 426.697216 79.956787 
L 440.643886 166.171922 
L 482.483898 29.271165 
L 552.21725 86.90924 
L 691.683955 258.72571 
" clip-path="url(#pf9e322b2eb)" style="fill: none; stroke: #1f77b4; stroke-width: 1.8; stroke-linecap: square"/>
    <defs>
     <path id="mab2311f12b" d="M 0 3 
C 0.795609 3 1.55874 2.683901 2.12132 2.12132 
C 2.683901 1.55874 3 0.795609 3 0 
C 3 -0.795609 2.683901 -1.55874 2.12132 -2.12132 
C 1.55874 -2.683901 0.795609 -3 0 -3 
C -0.795609 -3 -1.55874 -2.683901 -2.12132 -2.12132 
C -2.683901 -1.55874 -3 -0.795609 -3 0 
C -3 0.795609 -2.683901 1.55874 -2.12132 2.12132 
C -1.55874 2.683901 -0.795609 3 0 3 
z
" style="stroke: #1f77b4"/>
    </defs>
    <g clip-path="url(#pf9e322b2eb)">
     <use xlink:href="#mab2311f12b" x="412.750545" y="170.492122" style="fill: #1f77b4; stroke: #1f77b4"/>
     <use xlink:href="#mab2311f12b" x="418.329214" y="222.334519" style="fill: #1f77b4; stroke: #1f77b4"/>
     <use xlink:href="#mab2311f12b" x="426.697216" y="79.956787" style="fill: #1f77b4; stroke: #1f77b4"/>
     <use xlink:href="#mab2311f12b" x="440.643886" y="166.171922" style="fill: #1f77b4; stroke: #1f77b4"/>
     <use xlink:href="#mab2311f12b" x="482.483898" y="29.271165" style="fill: #1f77b4; stroke: #1f77b4"/>
     <use xlink:href="#mab2311f12b" x="552.21725" y="86.90924" style="fill: #1f77b4; stroke: #1f77b4"/>
     <use xlink:href="#mab2311f12b" x="691.683955" y="258.72571" style="fill: #1f77b4; stroke: #1f77b4"/>
    </g>
   </g>
   <g id="line2d_36">
    <path d="M 412.750545 123.082704 
L 418.329214 123.088838 
L 426.697216 123.086001 
L 440.643886 123.08833 
L 482.483898 123.084874 
L 552.21725 123.080264 
L 691.683955 123.0862 
" clip-path="url(#pf9e322b2eb)" style="fill: none; stroke: #ff7f0e; stroke-width: 1.8; stroke-linecap: square"/>
    <defs>
     <path id="m6e6bc86345" d="M 0 3 
C 0.795609 3 1.55874 2.683901 2.12132 2.12132 
C 2.683901 1.55874 3 0.795609 3 0 
C 3 -0.795609 2.683901 -1.55874 2.12132 -2.12132 
C 1.55874 -2.683901 0.795609 -3 0 -3 
C -0.795609 -3 -1.55874 -2.683901 -2.12132 -2.12132 
C -2.683901 -1.55874 -3 -0.795609 -3 0 
C -3 0.795609 -2.683901 1.55874 -2.12132 2.12132 
C -1.55874 2.683901 -0.795609 3 0 3 
z
" style="stroke: #ff7f0e"/>
    </defs>
    <g clip-path="url(#pf9e322b2eb)">
     <use xlink:href="#m6e6bc86345" x="412.750545" y="123.082704" style="fill: #ff7f0e; stroke: #ff7f0e"/>
     <use xlink:href="#m6e6bc86345" x="418.329214" y="123.088838" style="fill: #ff7f0e; stroke: #ff7f0e"/>
     <use xlink:href="#m6e6bc86345" x="426.697216" y="123.086001" style="fill: #ff7f0e; stroke: #ff7f0e"/>
     <use xlink:href="#m6e6bc86345" x="440.643886" y="123.08833" style="fill: #ff7f0e; stroke: #ff7f0e"/>
     <use xlink:href="#m6e6bc86345" x="482.483898" y="123.084874" style="fill: #ff7f0e; stroke: #ff7f0e"/>
     <use xlink:href="#m6e6bc86345" x="552.21725" y="123.080264" style="fill: #ff7f0e; stroke: #ff7f0e"/>
     <use xlink:href="#m6e6bc86345" x="691.683955" y="123.0862" style="fill: #ff7f0e; stroke: #ff7f0e"/>
    </g>
   </g>
   <g id="line2d_37">
    <path d="M 412.750545 123.087963 
L 418.329214 123.087962 
L 426.697216 123.087962 
L 440.643886 123.087962 
L 482.483898 123.087962 
L 552.21725 123.087963 
L 691.683955 123.087963 
" clip-path="url(#pf9e322b2eb)" style="fill: none; stroke: #2ca02c; stroke-width: 1.8; stroke-linecap: square"/>
    <defs>
     <path id="mf6db86a671" d="M 0 3 
C 0.795609 3 1.55874 2.683901 2.12132 2.12132 
C 2.683901 1.55874 3 0.795609 3 0 
C 3 -0.795609 2.683901 -1.55874 2.12132 -2.12132 
C 1.55874 -2.683901 0.795609 -3 0 -3 
C -0.795609 -3 -1.55874 -2.683901 -2.12132 -2.12132 
C -2.683901 -1.55874 -3 -0.795609 -3 0 
C -3 0.795609 -2.683901 1.55874 -2.12132 2.12132 
C -1.55874 2.683901 -0.795609 3 0 3 
z
" style="stroke: #2ca02c"/>
    </defs>
    <g clip-path="url(#pf9e322b2eb)">
     <use xlink:href="#mf6db86a671" x="412.750545" y="123.087963" style="fill: #2ca02c; stroke: #2ca02c"/>
     <use xlink:href="#mf6db86a671" x="418.329214" y="123.087962" style="fill: #2ca02c; stroke: #2ca02c"/>
     <use xlink:href="#mf6db86a671" x="426.697216" y="123.087962" style="fill: #2ca02c; stroke: #2ca02c"/>
     <use xlink:href="#mf6db86a671" x="440.643886" y="123.087962" style="fill: #2ca02c; stroke: #2ca02c"/>
     <use xlink:href="#mf6db86a671" x="482.483898" y="123.087962" style="fill: #2ca02c; stroke: #2ca02c"/>
     <use xlink:href="#mf6db86a671" x="552.21725" y="123.087963" style="fill: #2ca02c; stroke: #2ca02c"/>
     <use xlink:href="#mf6db86a671" x="691.683955" y="123.087963" style="fill: #2ca02c; stroke: #2ca02c"/>
    </g>
   </g>
   <g id="line2d_38">
    <path d="M 412.750545 123.087962 
L 418.329214 123.087962 
L 426.697216 123.087962 
L 440.643886 123.087962 
L 482.483898 123.087962 
L 552.21725 123.087962 
L 691.683955 123.087962 
" clip-path="url(#pf9e322b2eb)" style="fill: none; stroke: #d62728; stroke-width: 1.8; stroke-linecap: square"/>
    <defs>
     <path id="m68509ab7ca" d="M 0 3 
C 0.795609 3 1.55874 2.683901 2.12132 2.12132 
C 2.683901 1.55874 3 0.795609 3 0 
C 3 -0.795609 2.683901 -1.55874 2.12132 -2.12132 
C 1.55874 -2.683901 0.795609 -3 0 -3 
C -0.795609 -3 -1.55874 -2.683901 -2.12132 -2.12132 
C -2.683901 -1.55874 -3 -0.795609 -3 0 
C -3 0.795609 -2.683901 1.55874 -2.12132 2.12132 
C -1.55874 2.683901 -0.795609 3 0 3 
z
" style="stroke: #d62728"/>
    </defs>
    <g clip-path="url(#pf9e322b2eb)">
     <use xlink:href="#m68509ab7ca" x="412.750545" y="123.087962" style="fill: #d62728; stroke: #d62728"/>
     <use xlink:href="#m68509ab7ca" x="418.329214" y="123.087962" style="fill: #d62728; stroke: #d62728"/>
     <use xlink:href="#m68509ab7ca" x="426.697216" y="123.087962" style="fill: #d62728; stroke: #d62728"/>
     <use xlink:href="#m68509ab7ca" x="440.643886" y="123.087962" style="fill: #d62728; stroke: #d62728"/>
     <use xlink:href="#m68509ab7ca" x="482.483898" y="123.087962" style="fill: #d62728; stroke: #d62728"/>
     <use xlink:href="#m68509ab7ca" x="552.21725" y="123.087962" style="fill: #d62728; stroke: #d62728"/>
     <use xlink:href="#m68509ab7ca" x="691.683955" y="123.087962" style="fill: #d62728; stroke: #d62728"/>
    </g>
   </g>
   <g id="patch_8">
    <path d="M 398.803875 270.198437 
L 398.803875 17.798437 
" style="fill: none; stroke: #000000; stroke-width: 0.8; stroke-linejoin: miter; stroke-linecap: square"/>
   </g>
   <g id="patch_9">
    <path d="M 705.630625 270.198437 
L 705.630625 17.798437 
" style="fill: none; stroke: #000000; stroke-width: 0.8; stroke-linejoin: miter; stroke-linecap: square"/>
   </g>
   <g id="patch_10">
    <path d="M 398.803875 270.198437 
L 705.630625 270.198437 
" style="fill: none; stroke: #000000; stroke-width: 0.8; stroke-linejoin: miter; stroke-linecap: square"/>
   </g>
   <g id="patch_11">
    <path d="M 398.803875 17.798437 
L 705.630625 17.798437 
" style="fill: none; stroke: #000000; stroke-width: 0.8; stroke-linejoin: miter; stroke-linecap: square"/>
   </g>
   <g id="legend_2">
    <g id="line2d_39">
     <path d="M 631.740625 29.587031 
L 640.740625 29.587031 
L 649.740625 29.587031 
" style="fill: none; stroke: #1f77b4; stroke-width: 1.8; stroke-linecap: square"/>
     <g>
      <use xlink:href="#mab2311f12b" x="640.740625" y="29.587031" style="fill: #1f77b4; stroke: #1f77b4"/>
     </g>
    </g>
    <g id="text_37">
     <!-- $\eta_d=0.0$ -->
     <g transform="translate(656.940625 32.737031) scale(0.09 -0.09)">
      <defs>
       <path id="DejaVuSans-Oblique-3b7" d="M 3703 2113 
L 3034 -1331 
L 2459 -1331 
L 3125 2094 
Q 3222 2591 3075 2838 
Q 2931 3084 2544 3084 
Q 2078 3084 1750 2788 
Q 1425 2491 1325 1978 
L 941 0 
L 363 0 
L 1044 3500 
L 1622 3500 
L 1516 2956 
Q 1781 3272 2094 3428 
Q 2403 3584 2769 3584 
Q 3372 3584 3609 3213 
Q 3844 2838 3703 2113 
z
" transform="scale(0.015625)"/>
       <path id="DejaVuSans-Oblique-64" d="M 2675 525 
Q 2444 222 2128 65 
Q 1813 -91 1428 -91 
Q 903 -91 598 267 
Q 294 625 294 1247 
Q 294 1766 478 2236 
Q 663 2706 1013 3078 
Q 1244 3325 1534 3454 
Q 1825 3584 2144 3584 
Q 2481 3584 2739 3421 
Q 2997 3259 3138 2956 
L 3513 4863 
L 4091 4863 
L 3144 0 
L 2566 0 
L 2675 525 
z
M 891 1350 
Q 891 897 1095 644 
Q 1300 391 1663 391 
Q 1931 391 2161 520 
Q 2391 650 2566 903 
Q 2750 1166 2856 1509 
Q 2963 1853 2963 2188 
Q 2963 2622 2758 2865 
Q 2553 3109 2194 3109 
Q 1922 3109 1687 2981 
Q 1453 2853 1288 2613 
Q 1106 2353 998 2009 
Q 891 1666 891 1350 
z
" transform="scale(0.015625)"/>
      </defs>
      <use xlink:href="#DejaVuSans-Oblique-3b7" transform="translate(0 0.78125)"/>
      <use xlink:href="#DejaVuSans-Oblique-64" transform="translate(63.378906 -15.625) scale(0.7)"/>
      <use xlink:href="#DejaVuSans-3d" transform="translate(130.029297 0.78125)"/>
      <use xlink:href="#DejaVuSans-30" transform="translate(233.300781 0.78125)"/>
      <use xlink:href="#DejaVuSans-2e" transform="translate(296.923828 0.78125)"/>
      <use xlink:href="#DejaVuSans-30" transform="translate(328.710938 0.78125)"/>
     </g>
    </g>
    <g id="line2d_40">
     <path d="M 631.740625 42.815625 
L 640.740625 42.815625 
L 649.740625 42.815625 
" style="fill: none; stroke: #ff7f0e; stroke-width: 1.8; stroke-linecap: square"/>
     <g>
      <use xlink:href="#m6e6bc86345" x="640.740625" y="42.815625" style="fill: #ff7f0e; stroke: #ff7f0e"/>
     </g>
    </g>
    <g id="text_38">
     <!-- $\eta_d=0.25$ -->
     <g transform="translate(656.940625 45.965625) scale(0.09 -0.09)">
      <use xlink:href="#DejaVuSans-Oblique-3b7" transform="translate(0 0.78125)"/>
      <use xlink:href="#DejaVuSans-Oblique-64" transform="translate(63.378906 -15.625) scale(0.7)"/>
      <use xlink:href="#DejaVuSans-3d" transform="translate(130.029297 0.78125)"/>
      <use xlink:href="#DejaVuSans-30" transform="translate(233.300781 0.78125)"/>
      <use xlink:href="#DejaVuSans-2e" transform="translate(296.923828 0.78125)"/>
      <use xlink:href="#DejaVuSans-32" transform="translate(323.210938 0.78125)"/>
      <use xlink:href="#DejaVuSans-35" transform="translate(386.833984 0.78125)"/>
     </g>
    </g>
    <g id="line2d_41">
     <path d="M 631.740625 56.044219 
L 640.740625 56.044219 
L 649.740625 56.044219 
" style="fill: none; stroke: #2ca02c; stroke-width: 1.8; stroke-linecap: square"/>
     <g>
      <use xlink:href="#mf6db86a671" x="640.740625" y="56.044219" style="fill: #2ca02c; stroke: #2ca02c"/>
     </g>
    </g>
    <g id="text_39">
     <!-- $\eta_d=0.5$ -->
     <g transform="translate(656.940625 59.194219) scale(0.09 -0.09)">
      <use xlink:href="#DejaVuSans-Oblique-3b7" transform="translate(0 0.78125)"/>
      <use xlink:href="#DejaVuSans-Oblique-64" transform="translate(63.378906 -15.625) scale(0.7)"/>
      <use xlink:href="#DejaVuSans-3d" transform="translate(130.029297 0.78125)"/>
      <use xlink:href="#DejaVuSans-30" transform="translate(233.300781 0.78125)"/>
      <use xlink:href="#DejaVuSans-2e" transform="translate(296.923828 0.78125)"/>
      <use xlink:href="#DejaVuSans-35" transform="translate(328.710938 0.78125)"/>
     </g>
    </g>
    <g id="line2d_42">
     <path d="M 631.740625 69.272812 
L 640.740625 69.272812 
L 649.740625 69.272812 
" style="fill: none; stroke: #d62728; stroke-width: 1.8; stroke-linecap: square"/>
     <g>
      <use xlink:href="#m68509ab7ca" x="640.740625" y="69.272812" style="fill: #d62728; stroke: #d62728"/>
     </g>
    </g>
    <g id="text_40">
     <!-- $\eta_d=1.0$ -->
     <g transform="translate(656.940625 72.422812) scale(0.09 -0.09)">
      <use xlink:href="#DejaVuSans-Oblique-3b7" transform="translate(0 0.78125)"/>
      <use xlink:href="#DejaVuSans-Oblique-64" transform="translate(63.378906 -15.625) scale(0.7)"/>
      <use xlink:href="#DejaVuSans-3d" transform="translate(130.029297 0.78125)"/>
      <use xlink:href="#DejaVuSans-31" transform="translate(233.300781 0.78125)"/>
      <use xlink:href="#DejaVuSans-2e" transform="translate(296.923828 0.78125)"/>
      <use xlink:href="#DejaVuSans-30" transform="translate(328.710938 0.78125)"/>
     </g>
    </g>
   </g>
  </g>
 </g>
 <defs>
  <clipPath id="pf31a8dbb2d">
   <rect x="43.588125" y="17.798437" width="306.82675" height="252.4"/>
  </clipPath>
  <clipPath id="pf9e322b2eb">
   <rect x="398.803875" y="17.798437" width="306.82675" height="252.4"/>
  </clipPath>
 </defs>
</svg>
